<?xml version="1.0" standalone="no"?>
<!DOCTYPE svg PUBLIC "-//W3C//DTD SVG 20010904//EN"
 "http://www.w3.org/TR/2001/REC-SVG-20010904/DTD/svg10.dtd">
<svg version="1.0" xmlns="http://www.w3.org/2000/svg"
 width="768.000000pt" height="768.000000pt" viewBox="0 0 768.000000 768.000000"
 preserveAspectRatio="xMidYMid meet">
<metadata>
Created by potrace 1.11, written by Peter Selinger 2001-2013
</metadata>
<g transform="translate(0.000000,768.000000) scale(0.100000,-0.100000)"
fill="#000000" stroke="none">
<path d="M2107 5168 c-36 -89 -457 -1152 -457 -1155 0 -1 40 -3 88 -3 l89 0
69 168 69 167 205 3 206 2 68 -170 69 -170 89 0 c81 0 89 2 84 18 -3 9 -107
271 -230 582 l-224 565 -60 3 c-42 2 -61 -1 -65 -10z m132 -656 c-38 -2 -100
-2 -138 0 l-68 3 53 150 c30 83 61 170 71 194 l16 45 67 -195 68 -194 -69 -3z"/>
<path d="M952 4588 l3 -573 83 -3 82 -3 0 189 0 190 168 4 c144 4 175 8 227
28 80 31 154 102 191 183 37 81 45 217 19 298 -40 123 -118 204 -233 239 -56
18 -93 20 -303 20 l-239 0 2 -572z m503 383 c162 -73 162 -319 0 -392 -33 -15
-67 -19 -187 -19 l-148 0 0 215 0 215 148 0 c120 0 154 -4 187 -19z"/>
<path d="M2540 5075 l0 -85 175 0 175 0 0 -490 0 -490 85 0 85 0 0 490 0 490
230 0 230 0 0 -490 0 -490 85 0 85 0 0 490 0 490 170 0 170 0 0 85 0 85 -745
0 -745 0 0 -85z"/>
<path d="M4130 4585 l0 -575 350 0 350 0 0 85 0 85 -265 0 -265 0 0 160 0 160
260 0 260 0 0 85 0 85 -260 0 -260 0 0 160 0 160 265 0 265 0 0 85 0 85 -350
0 -350 0 0 -575z"/>
<path d="M4970 4585 l0 -576 83 3 82 3 3 488 2 487 138 0 c75 0 154 -5 174
-10 152 -43 186 -261 55 -348 -38 -25 -50 -27 -176 -32 l-136 -5 0 -42 c0 -39
11 -54 208 -292 l208 -251 105 0 c57 0 104 3 104 6 0 4 -79 101 -176 216 -97
115 -174 210 -173 212 2 1 31 10 64 20 48 15 71 30 121 80 52 53 65 73 83 130
65 212 -42 418 -244 471 -45 11 -115 15 -292 15 l-233 0 0 -575z"/>
<path d="M5892 4588 l3 -573 82 -3 83 -3 2 396 3 396 273 -395 273 -396 65 0
64 0 0 575 0 575 -80 0 -80 0 -2 -400 -3 -399 -275 399 -275 399 -68 1 -67 0
2 -572z"/>
<path d="M3391 3648 c-6 -18 -105 -268 -219 -556 l-208 -523 -157 188 -158
188 39 11 c164 49 261 191 250 369 -8 115 -69 224 -159 280 -75 48 -125 55
-386 55 l-243 0 0 -570 0 -570 85 0 85 0 0 485 0 485 152 0 c178 0 220 -13
266 -83 23 -34 27 -51 27 -112 0 -89 -26 -133 -99 -170 -45 -23 -62 -25 -173
-25 l-123 0 0 -39 c0 -35 17 -58 208 -289 l207 -251 171 -1 171 0 20 53 c11
28 42 103 68 165 l47 112 206 -2 206 -3 65 -162 66 -163 87 0 c49 0 88 3 88 7
0 4 -102 265 -227 580 l-227 573 -62 0 c-62 0 -63 0 -73 -32z m147 -443 c34
-99 62 -183 62 -187 0 -5 -61 -8 -135 -8 -74 0 -135 3 -135 7 0 21 135 382
140 375 4 -4 35 -88 68 -187z"/>
<path d="M1380 3654 c-190 -41 -355 -193 -414 -383 -50 -162 -39 -300 35 -450
139 -281 478 -393 753 -249 120 63 250 228 272 346 l7 32 -79 0 -79 0 -33 -65
c-40 -77 -103 -137 -180 -173 -51 -24 -69 -27 -167 -27 -106 0 -112 1 -172 34
-80 43 -146 113 -186 199 -30 62 -32 75 -32 172 0 97 2 110 31 170 45 94 102
153 190 196 200 99 430 22 518 -174 l19 -42 84 0 c45 0 83 2 83 5 0 22 -51
133 -87 187 -77 117 -190 194 -330 223 -84 18 -148 18 -233 -1z"/>
<path d="M4060 3090 l0 -570 85 0 85 0 0 240 0 240 228 2 227 3 0 85 0 85
-227 3 -228 2 0 155 0 155 255 0 255 0 0 85 0 85 -340 0 -340 0 0 -570z"/>
<path d="M4822 3578 l3 -83 173 -3 172 -2 0 -490 0 -490 85 0 85 0 0 490 0
490 170 0 170 0 0 85 0 85 -430 0 -431 0 3 -82z"/>
<path d="M6284 3326 c-193 -48 -292 -263 -204 -443 119 -241 476 -226 570 24
30 79 25 186 -13 259 -64 126 -216 195 -353 160z"/>
</g>
</svg>
